<mxfile host="app.diagrams.net" modified="2023-07-15T09:36:35.415Z" agent="Mozilla/5.0 (X11; Linux x86_64; rv:109.0) Gecko/20100101 Firefox/115.0" etag="cuYCh9BV9fluBQrkSBeK" version="21.6.2" type="github">
  <diagram name="Page-1" id="fRRlt2_z5O4Pgyi63CUx">
    <mxGraphModel dx="1360" dy="721" grid="1" gridSize="10" guides="1" tooltips="1" connect="1" arrows="1" fold="1" page="1" pageScale="1" pageWidth="850" pageHeight="1100" math="0" shadow="0">
      <root>
        <mxCell id="0" />
        <mxCell id="1" parent="0" />
        <mxCell id="Nw036pJT9a0Y2XX0Sr87-1" value="" style="whiteSpace=wrap;html=1;aspect=fixed;" parent="1" vertex="1">
          <mxGeometry x="380" y="360" as="geometry" />
        </mxCell>
        <mxCell id="Nw036pJT9a0Y2XX0Sr87-2" value="" style="rounded=0;whiteSpace=wrap;html=1;strokeWidth=7;" parent="1" vertex="1">
          <mxGeometry x="280" y="150" width="280" height="440" as="geometry" />
        </mxCell>
        <mxCell id="rswCYrFD89WHieu-YYeM-2" value="" style="endArrow=classic;html=1;rounded=0;entryX=-0.014;entryY=0.411;entryDx=0;entryDy=0;entryPerimeter=0;strokeWidth=5;" edge="1" parent="1">
          <mxGeometry width="50" height="50" relative="1" as="geometry">
            <mxPoint x="180" y="540" as="sourcePoint" />
            <mxPoint x="276.0799999999999" y="540.8399999999999" as="targetPoint" />
          </mxGeometry>
        </mxCell>
        <mxCell id="rswCYrFD89WHieu-YYeM-6" value="" style="shape=flexArrow;endArrow=classic;html=1;rounded=0;width=8;endSize=7.21;strokeWidth=3;" edge="1" parent="1">
          <mxGeometry width="50" height="50" relative="1" as="geometry">
            <mxPoint x="180" y="280" as="sourcePoint" />
            <mxPoint x="275" y="280" as="targetPoint" />
          </mxGeometry>
        </mxCell>
        <mxCell id="rswCYrFD89WHieu-YYeM-7" value="" style="shape=flexArrow;endArrow=classic;html=1;rounded=0;width=8;endSize=7.21;strokeWidth=3;" edge="1" parent="1">
          <mxGeometry width="50" height="50" relative="1" as="geometry">
            <mxPoint x="180" y="350" as="sourcePoint" />
            <mxPoint x="275" y="350" as="targetPoint" />
          </mxGeometry>
        </mxCell>
        <mxCell id="rswCYrFD89WHieu-YYeM-8" value="" style="shape=flexArrow;endArrow=classic;html=1;rounded=0;width=8;endSize=7.21;strokeWidth=3;" edge="1" parent="1">
          <mxGeometry width="50" height="50" relative="1" as="geometry">
            <mxPoint x="180" y="420" as="sourcePoint" />
            <mxPoint x="275" y="420" as="targetPoint" />
          </mxGeometry>
        </mxCell>
        <mxCell id="rswCYrFD89WHieu-YYeM-9" value="" style="shape=flexArrow;endArrow=classic;html=1;rounded=0;strokeWidth=3;" edge="1" parent="1">
          <mxGeometry width="50" height="50" relative="1" as="geometry">
            <mxPoint x="560" y="330" as="sourcePoint" />
            <mxPoint x="650" y="330" as="targetPoint" />
          </mxGeometry>
        </mxCell>
        <mxCell id="rswCYrFD89WHieu-YYeM-11" value="" style="shape=flexArrow;endArrow=classic;html=1;rounded=0;strokeWidth=3;" edge="1" parent="1">
          <mxGeometry width="50" height="50" relative="1" as="geometry">
            <mxPoint x="560" y="400" as="sourcePoint" />
            <mxPoint x="650" y="400" as="targetPoint" />
          </mxGeometry>
        </mxCell>
      </root>
    </mxGraphModel>
  </diagram>
</mxfile>
